<mxfile host="Electron" modified="2024-03-08T01:09:39.909Z" agent="Mozilla/5.0 (Windows NT 10.0; Win64; x64) AppleWebKit/537.36 (KHTML, like Gecko) draw.io/23.1.5 Chrome/120.0.6099.109 Electron/28.1.0 Safari/537.36" etag="VWSZRtI_nWIvCA2PFPWM" version="23.1.5" type="device">
  <diagram name="Page-1" id="3slSGsOn7nKETm-c0d8F">
    <mxGraphModel dx="1050" dy="621" grid="1" gridSize="10" guides="1" tooltips="1" connect="1" arrows="1" fold="1" page="1" pageScale="1" pageWidth="827" pageHeight="1169" math="0" shadow="0">
      <root>
        <mxCell id="0" />
        <mxCell id="1" parent="0" />
        <mxCell id="Y4SiquCTz5Y3hOR4p9F2-28" value="&lt;p style=&quot;line-height: 100%; font-size: 24px;&quot;&gt;&lt;font style=&quot;font-size: 24px;&quot;&gt;Người dùng&lt;/font&gt;&lt;/p&gt;" style="rounded=0;whiteSpace=wrap;html=1;fontFamily=Times New Roman;fontSize=24;" parent="1" vertex="1">
          <mxGeometry x="360" y="30" width="160" height="60" as="geometry" />
        </mxCell>
        <mxCell id="Y4SiquCTz5Y3hOR4p9F2-34" value="" style="shape=flexArrow;endArrow=classic;html=1;rounded=0;exitX=0.25;exitY=1;exitDx=0;exitDy=0;entryX=0.305;entryY=0.05;entryDx=0;entryDy=0;entryPerimeter=0;" parent="1" edge="1">
          <mxGeometry width="50" height="50" relative="1" as="geometry">
            <mxPoint x="480" y="215" as="sourcePoint" />
            <mxPoint x="480" y="90" as="targetPoint" />
          </mxGeometry>
        </mxCell>
        <mxCell id="Y4SiquCTz5Y3hOR4p9F2-29" value="&lt;p style=&quot;line-height: 100%; font-size: 24px;&quot;&gt;&lt;font style=&quot;font-size: 24px;&quot;&gt;TB nhập&lt;/font&gt;&lt;/p&gt;" style="rounded=0;whiteSpace=wrap;html=1;fontFamily=Times New Roman;fontSize=24;" parent="1" vertex="1">
          <mxGeometry x="60" y="230" width="160" height="60" as="geometry" />
        </mxCell>
        <mxCell id="Y4SiquCTz5Y3hOR4p9F2-30" value="&lt;p style=&quot;line-height: 100%; font-size: 24px;&quot;&gt;&lt;font style=&quot;font-size: 24px;&quot;&gt;TB xuất&lt;/font&gt;&lt;/p&gt;" style="rounded=0;whiteSpace=wrap;html=1;fontFamily=Times New Roman;fontSize=24;" parent="1" vertex="1">
          <mxGeometry x="660" y="230" width="160" height="60" as="geometry" />
        </mxCell>
        <mxCell id="Y4SiquCTz5Y3hOR4p9F2-32" value="Bộ nhớ phụ&amp;nbsp;" style="shape=partialRectangle;whiteSpace=wrap;html=1;left=0;right=0;fillColor=none;fontFamily=Times New Roman;fontSize=24;" parent="1" vertex="1">
          <mxGeometry x="325" y="430" width="230" height="60" as="geometry" />
        </mxCell>
        <mxCell id="Y4SiquCTz5Y3hOR4p9F2-41" value="" style="shape=flexArrow;endArrow=classic;html=1;rounded=0;exitX=0.25;exitY=1;exitDx=0;exitDy=0;entryX=0.305;entryY=0.05;entryDx=0;entryDy=0;entryPerimeter=0;width=10;fillColor=#000000;" parent="1" edge="1">
          <mxGeometry width="50" height="50" relative="1" as="geometry">
            <mxPoint x="480" y="305" as="sourcePoint" />
            <mxPoint x="480" y="430" as="targetPoint" />
          </mxGeometry>
        </mxCell>
        <mxCell id="Y4SiquCTz5Y3hOR4p9F2-35" value="" style="shape=flexArrow;endArrow=classic;html=1;rounded=0;exitX=1;exitY=0.5;exitDx=0;exitDy=0;entryX=0;entryY=0.5;entryDx=0;entryDy=0;width=10;" parent="1" source="Y4SiquCTz5Y3hOR4p9F2-29" target="Y4SiquCTz5Y3hOR4p9F2-27" edge="1">
          <mxGeometry width="50" height="50" relative="1" as="geometry">
            <mxPoint x="260" y="220" as="sourcePoint" />
            <mxPoint x="261" y="345" as="targetPoint" />
          </mxGeometry>
        </mxCell>
        <mxCell id="Y4SiquCTz5Y3hOR4p9F2-38" value="" style="shape=flexArrow;endArrow=classic;html=1;rounded=0;exitX=1;exitY=0.5;exitDx=0;exitDy=0;entryX=0;entryY=0.5;entryDx=0;entryDy=0;width=10;fillColor=#000000;" parent="1" edge="1">
          <mxGeometry width="50" height="50" relative="1" as="geometry">
            <mxPoint x="540" y="259.5" as="sourcePoint" />
            <mxPoint x="660" y="259.5" as="targetPoint" />
          </mxGeometry>
        </mxCell>
        <mxCell id="Y4SiquCTz5Y3hOR4p9F2-40" value="" style="shape=flexArrow;endArrow=classic;html=1;rounded=0;exitX=0.25;exitY=1;exitDx=0;exitDy=0;entryX=0.305;entryY=0.05;entryDx=0;entryDy=0;entryPerimeter=0;fillColor=#000000;" parent="1" edge="1">
          <mxGeometry width="50" height="50" relative="1" as="geometry">
            <mxPoint x="400" y="430" as="sourcePoint" />
            <mxPoint x="400" y="305" as="targetPoint" />
          </mxGeometry>
        </mxCell>
        <mxCell id="Y4SiquCTz5Y3hOR4p9F2-27" value="&lt;font style=&quot;font-size: 24px;&quot;&gt;Bán vé&lt;/font&gt;" style="ellipse;whiteSpace=wrap;html=1;fontFamily=Times New Roman;fontSize=24;" parent="1" vertex="1">
          <mxGeometry x="340" y="210" width="200" height="100" as="geometry" />
        </mxCell>
        <mxCell id="Y4SiquCTz5Y3hOR4p9F2-43" value="" style="shape=flexArrow;endArrow=classic;html=1;rounded=0;exitX=0.25;exitY=1;exitDx=0;exitDy=0;entryX=0.305;entryY=0.05;entryDx=0;entryDy=0;entryPerimeter=0;width=10;fillColor=#000000;" parent="1" edge="1">
          <mxGeometry width="50" height="50" relative="1" as="geometry">
            <mxPoint x="400" y="90" as="sourcePoint" />
            <mxPoint x="400" y="215" as="targetPoint" />
          </mxGeometry>
        </mxCell>
        <mxCell id="Y4SiquCTz5Y3hOR4p9F2-44" value="D1" style="text;html=1;align=center;verticalAlign=middle;resizable=0;points=[];autosize=1;strokeColor=none;fillColor=none;fontSize=19;fontStyle=1;fontFamily=Times New Roman;" parent="1" vertex="1">
          <mxGeometry x="345" y="125" width="50" height="40" as="geometry" />
        </mxCell>
        <mxCell id="Y4SiquCTz5Y3hOR4p9F2-45" value="D6" style="text;html=1;align=center;verticalAlign=middle;resizable=0;points=[];autosize=1;strokeColor=none;fillColor=none;fontSize=19;fontStyle=1;fontFamily=Times New Roman;" parent="1" vertex="1">
          <mxGeometry x="485" y="125" width="50" height="40" as="geometry" />
        </mxCell>
        <mxCell id="Y4SiquCTz5Y3hOR4p9F2-46" value="D3" style="text;html=1;align=center;verticalAlign=middle;resizable=0;points=[];autosize=1;strokeColor=none;fillColor=none;fontSize=19;fontStyle=1;fontFamily=Times New Roman;" parent="1" vertex="1">
          <mxGeometry x="345" y="355" width="50" height="40" as="geometry" />
        </mxCell>
        <mxCell id="Y4SiquCTz5Y3hOR4p9F2-47" value="D4" style="text;html=1;align=center;verticalAlign=middle;resizable=0;points=[];autosize=1;strokeColor=none;fillColor=none;fontSize=19;fontStyle=1;fontFamily=Times New Roman;" parent="1" vertex="1">
          <mxGeometry x="485" y="355" width="50" height="40" as="geometry" />
        </mxCell>
        <mxCell id="Y4SiquCTz5Y3hOR4p9F2-48" value="D2" style="text;html=1;align=center;verticalAlign=middle;resizable=0;points=[];autosize=1;strokeColor=none;fillColor=none;fontSize=19;fontStyle=1;fontFamily=Times New Roman;" parent="1" vertex="1">
          <mxGeometry x="255" y="215" width="50" height="40" as="geometry" />
        </mxCell>
        <mxCell id="Y4SiquCTz5Y3hOR4p9F2-49" value="D5" style="text;html=1;align=center;verticalAlign=middle;resizable=0;points=[];autosize=1;strokeColor=none;fillColor=none;fontSize=19;fontStyle=1;fontFamily=Times New Roman;" parent="1" vertex="1">
          <mxGeometry x="575" y="215" width="50" height="40" as="geometry" />
        </mxCell>
        <mxCell id="Y4SiquCTz5Y3hOR4p9F2-50" value="&lt;font face=&quot;Times New Roman&quot; style=&quot;font-size: 20px;&quot;&gt;&lt;b&gt;&lt;span style=&quot;background-color: rgb(255, 0, 0);&quot;&gt;Mô tả luồng dữ liệu:&lt;br&gt;&lt;/span&gt;D1: &lt;/b&gt;Chuyến bay, tên hành khách, CMND, điện thoại, hạng vé, giá tiền&lt;br&gt;&lt;div style=&quot;&quot;&gt;&lt;b style=&quot;background-color: initial;&quot;&gt;D2: &lt;/b&gt;&lt;span style=&quot;background-color: initial;&quot;&gt;Không có&lt;/span&gt;&lt;/div&gt;&lt;b&gt;D3: &lt;/b&gt;&lt;span style=&quot;font-weight: bold; white-space: pre;&quot;&gt;&#x9;&lt;/span&gt;+&lt;b&gt;&amp;nbsp;&lt;/b&gt;Danh sách chuyến bay&amp;nbsp;&lt;br&gt;&lt;span style=&quot;white-space: pre;&quot;&gt;&#x9;&lt;/span&gt;+ Danh sách số hạng ghế ứng với từng chuyến bay và giá vé&amp;nbsp;&lt;br&gt;&lt;b&gt;D4: &lt;/b&gt;D1&lt;br&gt;&lt;b&gt;D5: &lt;/b&gt;D4&lt;br&gt;&lt;b&gt;D6: &lt;/b&gt;Không có&lt;/font&gt;" style="text;html=1;align=left;verticalAlign=middle;whiteSpace=wrap;rounded=0;" parent="1" vertex="1">
          <mxGeometry x="60" y="500" width="590" height="200" as="geometry" />
        </mxCell>
        <mxCell id="Y4SiquCTz5Y3hOR4p9F2-51" value="&lt;font style=&quot;font-size: 20px;&quot;&gt;&lt;font face=&quot;Times New Roman&quot;&gt;&lt;b&gt;&lt;span style=&quot;background-color: rgb(255, 0, 0);&quot;&gt;Thuật toán&lt;/span&gt;:&lt;br&gt;B1&lt;/b&gt;: Nhận D1 từ người dùng&lt;br&gt;&lt;b&gt;B2&lt;/b&gt;: Kết nối cơ sở dữ liệu&lt;br&gt;&lt;b&gt;B3&lt;/b&gt;: Đọc D3 từ bộ nhớ phụ&lt;br&gt;&lt;b&gt;B4&lt;/b&gt;: Kiểm tra chuyến bay (D1) có thuộc danh sách các chuyến bay (D3) hay không.&lt;br&gt;&lt;b&gt;B5&lt;/b&gt;: Kiểm tra số ghế trống của chuyến bay &amp;gt;= 0&lt;br&gt;&lt;b&gt;B6&lt;/b&gt;: Kiểm tra hạng vé D1 có thuộc hạng vé trong Lịch chuyến bay D3 không&lt;br&gt;&lt;b&gt;B7&lt;/b&gt;: Kiểm tra hạng vé D1 có thuộc 1 trong các hạng vé D3 từ danh sách số hạng ghế của chuyến bay không&lt;br&gt;&lt;b&gt;B8&lt;/b&gt;:&amp;nbsp;&lt;/font&gt;Kiểm tra giá vé D1 nếu là hạng vé cao cấp thì&lt;br style=&quot;font-family: &amp;quot;Times New Roman&amp;quot;;&quot;&gt;&lt;span style=&quot;font-family: &amp;quot;Times New Roman&amp;quot;;&quot;&gt;&lt;span style=&quot;white-space: pre;&quot;&gt;&amp;nbsp;&amp;nbsp;&amp;nbsp;&amp;nbsp;&lt;/span&gt;&lt;/span&gt;&lt;span style=&quot;font-family: &amp;quot;Times New Roman&amp;quot;;&quot;&gt;giá &amp;gt;= giá vé trong lịch Chuyến bay D3 không&lt;br&gt;&lt;/span&gt;&lt;font face=&quot;Times New Roman&quot;&gt;&lt;b&gt;B9&lt;/b&gt;: Kiểm tra giá vé D1 có khác tất cả các giá vé của các chuyến bay D3 khác chuyến bay D1&lt;br&gt;&lt;b&gt;B9&lt;/b&gt;: Nếu không thõa mãn các điều kiện trên thì đến bước 11&lt;br&gt;&lt;b&gt;B10&lt;/b&gt;: Lưu D4 xuống bộ nhớ phụ&lt;br&gt;&lt;b&gt;B11&lt;/b&gt;: Xuất D5 ra máy in (nếu có yêu cầu)&lt;br&gt;&lt;b&gt;B12&lt;/b&gt;: Đóng kết nối cơ sở dữ liệu&lt;br&gt;&lt;b&gt;B13&lt;/b&gt;: Kết thúc&lt;/font&gt;&lt;br&gt;&lt;/font&gt;" style="text;html=1;align=left;verticalAlign=middle;whiteSpace=wrap;rounded=0;" parent="1" vertex="1">
          <mxGeometry x="60" y="750" width="680" height="360" as="geometry" />
        </mxCell>
      </root>
    </mxGraphModel>
  </diagram>
</mxfile>
